<svg xmlns="http://www.w3.org/2000/svg" xmlns:xlink="http://www.w3.org/1999/xlink" version="1.1" width="256" height="256" viewBox="0 0 256 256" xml:space="preserve">
<g style="stroke: none; stroke-width: 0; stroke-dasharray: none; stroke-linecap: butt; stroke-linejoin: miter; stroke-miterlimit: 10; fill: none; fill-rule: nonzero; opacity: 1;" transform="translate(1.4065934065934016 1.4065934065934016) scale(2.81 2.81)">
	<path d="M 45 37.918 c -6.42 0 -11.643 -5.223 -11.643 -11.643 S 38.58 14.633 45 14.633 s 11.643 5.223 11.643 11.643 S 51.42 37.918 45 37.918 z M 45 16.633 c -5.317 0 -9.643 4.326 -9.643 9.643 c 0 5.317 4.326 9.643 9.643 9.643 c 5.317 0 9.643 -4.326 9.643 -9.643 C 54.643 20.958 50.317 16.633 45 16.633 z" style="stroke: none; stroke-width: 1; stroke-dasharray: none; stroke-linecap: butt; stroke-linejoin: miter; stroke-miterlimit: 10; fill: rgb(0,0,0); fill-rule: nonzero; opacity: 1;" transform=" matrix(1 0 0 1 0 0) " stroke-linecap="round"/>
	<path d="M 45 85.381 c -9.876 0 -18.488 -2.187 -21.43 -5.44 c -0.371 -0.41 -0.338 -1.042 0.071 -1.413 c 0.409 -0.371 1.042 -0.338 1.412 0.071 c 2.545 2.815 10.747 4.782 19.946 4.782 c 0.552 0 1 0.447 1 1 S 45.552 85.381 45 85.381 z" style="stroke: none; stroke-width: 1; stroke-dasharray: none; stroke-linecap: butt; stroke-linejoin: miter; stroke-miterlimit: 10; fill: rgb(0,0,0); fill-rule: nonzero; opacity: 1;" transform=" matrix(1 0 0 1 0 0) " stroke-linecap="round"/>
	<path d="M 50.167 68.262 c 2.362 -4.421 5.299 -8.625 8.181 -12.749 c 6.287 -8.999 12.789 -18.304 12.789 -29.375 C 71.137 11.725 59.412 0 45 0 S 18.863 11.725 18.863 26.137 c 0 11.071 6.502 20.376 12.79 29.375 c 2.882 4.125 5.818 8.328 8.181 12.749 c -13.491 0.928 -23.125 5.368 -23.125 10.78 C 16.708 85.187 29.136 90 45 90 s 28.292 -4.813 28.292 -10.958 C 73.292 73.629 63.657 69.189 50.167 68.262 z M 20.863 26.137 C 20.863 12.828 31.691 2 45 2 c 13.309 0 24.137 10.828 24.137 24.137 c 0 10.442 -6.037 19.083 -12.429 28.23 c -3.208 4.591 -6.467 9.285 -8.987 14.297 c -0.028 0.046 -0.052 0.091 -0.072 0.141 c -1.024 2.051 -1.936 4.151 -2.649 6.327 c -0.713 -2.175 -1.624 -4.273 -2.648 -6.323 c -0.022 -0.055 -0.048 -0.103 -0.078 -0.153 c -2.519 -5.008 -5.776 -9.7 -8.983 -14.289 C 26.9 45.219 20.863 36.579 20.863 26.137 z M 45 88 c -15.494 0 -26.292 -4.721 -26.292 -8.958 c 0 -3.769 8.264 -8.05 22.115 -8.831 c 1.39 2.859 2.515 5.813 3.201 8.901 c 0.102 0.458 0.507 0.783 0.976 0.783 s 0.875 -0.325 0.976 -0.783 c 0.686 -3.088 1.811 -6.042 3.201 -8.901 c 13.851 0.782 22.115 5.063 22.115 8.831 C 71.292 83.279 60.494 88 45 88 z" style="stroke: none; stroke-width: 1; stroke-dasharray: none; stroke-linecap: butt; stroke-linejoin: miter; stroke-miterlimit: 10; fill: rgb(0,0,0); fill-rule: nonzero; opacity: 1;" transform=" matrix(1 0 0 1 0 0) " stroke-linecap="round"/>
</g>
</svg>